<svg width="24" height="24" viewBox="0 0 24 24" fill="none" xmlns="http://www.w3.org/2000/svg">
<path d="M17.3767 0H6.62299C2.97108 0 0 2.97122 0 6.62313V17.3769C0 21.0289 2.97108 24 6.62299 24H17.3767C21.0289 24 24 21.0288 24 17.3769V6.62313C24.0001 2.97122 21.0289 0 17.3767 0ZM21.8707 17.3769C21.8707 19.8548 19.8548 21.8706 17.3769 21.8706H6.62299C4.14523 21.8707 2.1294 19.8548 2.1294 17.3769V6.62313C2.1294 4.14537 4.14523 2.1294 6.62299 2.1294H17.3767C19.8546 2.1294 21.8706 4.14537 21.8706 6.62313L21.8707 17.3769Z" fill="#C4C4C4"/>
<path d="M12 5.14286C8.21892 5.14286 5.14286 8.21898 5.14286 12.0002C5.14286 15.7812 8.21892 18.8571 12 18.8571C15.7811 18.8571 18.8571 15.7812 18.8571 12.0002C18.8571 8.21898 15.7811 5.14286 12 5.14286ZM12 16.4958C9.52099 16.4958 7.50397 14.4791 7.50397 12C7.50397 9.52077 9.52083 7.50387 12 7.50387C14.4792 7.50387 16.496 9.52077 16.496 12C16.496 14.4791 14.479 16.4958 12 16.4958Z" fill="#C4C4C4"/>
<path d="M18.8571 3.42857C18.4068 3.42857 17.9643 3.61091 17.6462 3.93039C17.3266 4.24831 17.1429 4.69091 17.1429 5.14286C17.1429 5.5934 17.3268 6.03584 17.6462 6.35532C17.9642 6.67325 18.4068 6.85714 18.8571 6.85714C19.3091 6.85714 19.7501 6.67325 20.0696 6.35532C20.3891 6.03584 20.5714 5.59325 20.5714 5.14286C20.5714 4.69091 20.3891 4.24831 20.0696 3.93039C19.7517 3.61091 19.3091 3.42857 18.8571 3.42857Z" fill="#C4C4C4"/>
</svg>
