<svg width="194" height="37" viewBox="0 0 194 37" fill="none" xmlns="http://www.w3.org/2000/svg">
<path d="M53.7328 35.1116C53.2289 35.1116 52.7746 35.0012 52.3701 34.7806C51.9656 34.5535 51.6474 34.242 51.4153 33.8462C51.1832 33.4504 51.0671 33.0026 51.0671 32.503C51.0671 32.0033 51.1832 31.5556 51.4153 31.1598C51.6474 30.7639 51.9656 30.4557 52.3701 30.2351C52.7746 30.0145 53.2289 29.9042 53.7328 29.9042C54.2368 29.9042 54.691 30.0145 55.0955 30.2351C55.5 30.4557 55.815 30.7639 56.0404 31.1598C56.2725 31.5556 56.3886 32.0033 56.3886 32.503C56.3886 33.0026 56.2725 33.4504 56.0404 33.8462C55.815 34.242 55.5 34.5535 55.0955 34.7806C54.691 35.0012 54.2368 35.1116 53.7328 35.1116ZM53.7328 34.4983C54.1042 34.4983 54.4357 34.4172 54.7275 34.255C55.0259 34.0863 55.258 33.8495 55.4237 33.5445C55.5895 33.2395 55.6724 32.8923 55.6724 32.503C55.6724 32.1136 55.5895 31.7665 55.4237 31.4615C55.258 31.1565 55.0259 30.9229 54.7275 30.7607C54.4357 30.592 54.1042 30.5076 53.7328 30.5076C53.3615 30.5076 53.0266 30.592 52.7282 30.7607C52.4364 30.9229 52.2044 31.1565 52.032 31.4615C51.8662 31.7665 51.7833 32.1136 51.7833 32.503C51.7833 32.8923 51.8662 33.2395 52.032 33.5445C52.2044 33.8495 52.4364 34.0863 52.7282 34.255C53.0266 34.4172 53.3615 34.4983 53.7328 34.4983ZM58.0135 29.9431H58.7197V32.211H62.0121V29.9431H62.7183V35.0629H62.0121V32.8047H58.7197V35.0629H58.0135V29.9431ZM69.2339 29.9431V35.0629H68.5277V30.5563H66.0212L65.9515 31.8216C65.8984 32.8858 65.7725 33.7035 65.5736 34.2745C65.3746 34.8455 65.0199 35.131 64.5093 35.131C64.37 35.131 64.2009 35.1051 64.002 35.0532L64.0517 34.4594C64.1711 34.4854 64.254 34.4983 64.3004 34.4983C64.5723 34.4983 64.7778 34.3751 64.9171 34.1285C65.0563 33.8819 65.1492 33.5769 65.1956 33.2135C65.242 32.8501 65.2818 32.37 65.3149 31.773L65.4045 29.9431H69.2339ZM73.3888 29.9042C74.0718 29.9042 74.5957 30.0729 74.9604 30.4103C75.325 30.7412 75.5074 31.2344 75.5074 31.8898V35.0629H74.8311V34.2647C74.6719 34.5308 74.4366 34.7384 74.1249 34.8877C73.8199 35.0369 73.4551 35.1116 73.0307 35.1116C72.4472 35.1116 71.983 34.9753 71.6382 34.7028C71.2934 34.4302 71.121 34.0701 71.121 33.6223C71.121 33.1876 71.2801 32.8372 71.5984 32.5711C71.9233 32.3051 72.4373 32.172 73.1401 32.172H74.8012V31.8606C74.8012 31.4193 74.6753 31.0851 74.4233 30.858C74.1712 30.6244 73.8032 30.5076 73.3192 30.5076C72.9876 30.5076 72.6693 30.5628 72.3643 30.6731C72.0593 30.7769 71.7974 30.9229 71.5785 31.1111L71.2602 30.5952C71.5254 30.3746 71.8437 30.2059 72.2151 30.0891C72.5865 29.9658 72.9776 29.9042 73.3888 29.9042ZM73.1401 34.5665C73.538 34.5665 73.8795 34.4789 74.1646 34.3037C74.4497 34.122 74.662 33.8624 74.8012 33.525V32.6879H73.16C72.2648 32.6879 71.8172 32.9929 71.8172 33.6029C71.8172 33.9014 71.9333 34.1382 72.1654 34.3134C72.3975 34.4821 72.7224 34.5665 73.1401 34.5665ZM77.5031 29.9431H78.2093V34.0117L81.7006 29.9431H82.3272V35.0629H81.621V30.9943L78.1397 35.0629H77.5031V29.9431ZM79.8804 29.2033C79.4294 29.2033 79.0713 29.093 78.8061 28.8724C78.5408 28.6518 78.4049 28.3403 78.3983 27.938H78.9056C78.9122 28.1911 79.0051 28.3955 79.1841 28.5512C79.3631 28.7004 79.5951 28.7751 79.8804 28.7751C80.1654 28.7751 80.3976 28.7004 80.5766 28.5512C80.7622 28.3955 80.8584 28.1911 80.8651 27.938H81.3723C81.3656 28.3403 81.2264 28.6518 80.9546 28.8724C80.6893 29.093 80.3312 29.2033 79.8804 29.2033ZM84.4668 29.9431H85.173V32.211H88.4653V29.9431H89.1715V35.0629H88.4653V32.8047H85.173V35.0629H84.4668V29.9431ZM96.8384 32.7853H95.6448V35.0629H94.9386V29.9431H95.6448V32.1915H96.8483L98.6884 29.9431H99.4543L97.3954 32.4251L99.6035 35.0629H98.768L96.8384 32.7853ZM102.923 35.1116C102.419 35.1116 101.965 35.0012 101.561 34.7806C101.156 34.5535 100.838 34.242 100.606 33.8462C100.374 33.4504 100.258 33.0026 100.258 32.503C100.258 32.0033 100.374 31.5556 100.606 31.1598C100.838 30.7639 101.156 30.4557 101.561 30.2351C101.965 30.0145 102.419 29.9042 102.923 29.9042C103.427 29.9042 103.881 30.0145 104.286 30.2351C104.69 30.4557 105.005 30.7639 105.231 31.1598C105.463 31.5556 105.579 32.0033 105.579 32.503C105.579 33.0026 105.463 33.4504 105.231 33.8462C105.005 34.242 104.69 34.5535 104.286 34.7806C103.881 35.0012 103.427 35.1116 102.923 35.1116ZM102.923 34.4983C103.295 34.4983 103.626 34.4172 103.918 34.255C104.216 34.0863 104.448 33.8495 104.614 33.5445C104.78 33.2395 104.863 32.8923 104.863 32.503C104.863 32.1136 104.78 31.7665 104.614 31.4615C104.448 31.1565 104.216 30.9229 103.918 30.7607C103.626 30.592 103.295 30.5076 102.923 30.5076C102.552 30.5076 102.217 30.592 101.919 30.7607C101.627 30.9229 101.395 31.1565 101.222 31.4615C101.057 31.7665 100.974 32.1136 100.974 32.503C100.974 32.8923 101.057 33.2395 101.222 33.5445C101.395 33.8495 101.627 34.0863 101.919 34.255C102.217 34.4172 102.552 34.4983 102.923 34.4983ZM107.204 29.9431H107.91V32.211H111.202V29.9431H111.909V35.0629H111.202V32.8047H107.91V35.0629H107.204V29.9431ZM116.22 35.1116C115.703 35.1116 115.238 35.0012 114.827 34.7806C114.423 34.56 114.105 34.2518 113.873 33.8559C113.64 33.4536 113.524 33.0026 113.524 32.503C113.524 32.0033 113.64 31.5556 113.873 31.1598C114.105 30.7639 114.423 30.4557 114.827 30.2351C115.238 30.0145 115.703 29.9042 116.22 29.9042C116.671 29.9042 117.072 29.9918 117.423 30.167C117.782 30.3357 118.063 30.5855 118.269 30.9164L117.742 31.2668C117.569 31.0138 117.35 30.8256 117.085 30.7023C116.82 30.5725 116.531 30.5076 116.22 30.5076C115.842 30.5076 115.5 30.592 115.195 30.7607C114.897 30.9229 114.662 31.1565 114.489 31.4615C114.323 31.7665 114.241 32.1136 114.241 32.503C114.241 32.8988 114.323 33.2492 114.489 33.5542C114.662 33.8527 114.897 34.0863 115.195 34.255C115.5 34.4172 115.842 34.4983 116.22 34.4983C116.531 34.4983 116.82 34.4367 117.085 34.3134C117.35 34.1901 117.569 34.0019 117.742 33.7489L118.269 34.0993C118.063 34.4302 117.782 34.6833 117.423 34.8585C117.065 35.0272 116.664 35.1116 116.22 35.1116ZM123.451 30.5563H121.471V35.0629H120.765V30.5563H118.786V29.9431H123.451V30.5563ZM127.399 29.9042C127.889 29.9042 128.334 30.0145 128.731 30.2351C129.129 30.4492 129.441 30.7542 129.666 31.15C129.892 31.5459 130.005 31.9968 130.005 32.503C130.005 33.0156 129.892 33.4698 129.666 33.8657C129.441 34.2615 129.129 34.5697 128.731 34.7904C128.34 35.0045 127.896 35.1116 127.399 35.1116C126.974 35.1116 126.59 35.0272 126.245 34.8585C125.907 34.6833 125.628 34.4302 125.409 34.0993V36.9512H124.703V29.9431H125.379V30.9554C125.592 30.6179 125.87 30.3584 126.215 30.1767C126.566 29.995 126.961 29.9042 127.399 29.9042ZM127.349 34.4983C127.714 34.4983 128.045 34.4172 128.344 34.255C128.642 34.0863 128.874 33.8495 129.04 33.5445C129.212 33.2395 129.298 32.8923 129.298 32.503C129.298 32.1136 129.212 31.7697 129.04 31.4712C128.874 31.1663 128.642 30.9294 128.344 30.7607C128.045 30.592 127.714 30.5076 127.349 30.5076C126.978 30.5076 126.643 30.592 126.344 30.7607C126.053 30.9294 125.82 31.1663 125.648 31.4712C125.482 31.7697 125.399 32.1136 125.399 32.503C125.399 32.8923 125.482 33.2395 125.648 33.5445C125.82 33.8495 126.053 34.0863 126.344 34.255C126.643 34.4172 126.978 34.4983 127.349 34.4983ZM136.054 29.9431L133.438 35.6761C133.226 36.1563 132.98 36.497 132.702 36.6981C132.423 36.8993 132.088 36.9999 131.697 36.9999C131.445 36.9999 131.21 36.9609 130.991 36.883C130.772 36.8052 130.583 36.6884 130.424 36.5326L130.752 36.0168C131.017 36.2763 131.336 36.4061 131.707 36.4061C131.946 36.4061 132.148 36.3412 132.314 36.2114C132.486 36.0817 132.645 35.861 132.791 35.5496L133.02 35.0532L130.682 29.9431H131.419L133.388 34.2939L135.357 29.9431H136.054ZM139.169 32.7853H137.976V35.0629H137.27V29.9431H137.976V32.1915H139.179L141.02 29.9431H141.785L139.726 32.4251L141.935 35.0629H141.099L139.169 32.7853ZM146.854 30.5563H144.874V35.0629H144.168V30.5563H142.189V29.9431H146.854V30.5563ZM149.906 35.1116C149.402 35.1116 148.948 35.0012 148.543 34.7806C148.139 34.5535 147.821 34.242 147.589 33.8462C147.357 33.4504 147.24 33.0026 147.24 32.503C147.24 32.0033 147.357 31.5556 147.589 31.1598C147.821 30.7639 148.139 30.4557 148.543 30.2351C148.948 30.0145 149.402 29.9042 149.906 29.9042C150.41 29.9042 150.864 30.0145 151.269 30.2351C151.673 30.4557 151.988 30.7639 152.214 31.1598C152.446 31.5556 152.562 32.0033 152.562 32.503C152.562 33.0026 152.446 33.4504 152.214 33.8462C151.988 34.242 151.673 34.5535 151.269 34.7806C150.864 35.0012 150.41 35.1116 149.906 35.1116ZM149.906 34.4983C150.278 34.4983 150.609 34.4172 150.901 34.255C151.199 34.0863 151.431 33.8495 151.597 33.5445C151.763 33.2395 151.846 32.8923 151.846 32.503C151.846 32.1136 151.763 31.7665 151.597 31.4615C151.431 31.1565 151.199 30.9229 150.901 30.7607C150.609 30.592 150.278 30.5076 149.906 30.5076C149.535 30.5076 149.2 30.592 148.902 30.7607C148.61 30.9229 148.378 31.1565 148.205 31.4615C148.04 31.7665 147.957 32.1136 147.957 32.503C147.957 32.8923 148.04 33.2395 148.205 33.5445C148.378 33.8495 148.61 34.0863 148.902 34.255C149.2 34.4172 149.535 34.4983 149.906 34.4983ZM157.114 29.9042C157.604 29.9042 158.049 30.0145 158.447 30.2351C158.844 30.4492 159.156 30.7542 159.382 31.15C159.607 31.5459 159.72 31.9968 159.72 32.503C159.72 33.0156 159.607 33.4698 159.382 33.8657C159.156 34.2615 158.844 34.5697 158.447 34.7904C158.055 35.0045 157.611 35.1116 157.114 35.1116C156.689 35.1116 156.305 35.0272 155.96 34.8585C155.622 34.6833 155.343 34.4302 155.124 34.0993V36.9512H154.418V29.9431H155.095V30.9554C155.307 30.6179 155.585 30.3584 155.93 30.1767C156.282 29.995 156.676 29.9042 157.114 29.9042ZM157.064 34.4983C157.429 34.4983 157.76 34.4172 158.059 34.255C158.357 34.0863 158.589 33.8495 158.755 33.5445C158.927 33.2395 159.014 32.8923 159.014 32.503C159.014 32.1136 158.927 31.7697 158.755 31.4712C158.589 31.1663 158.357 30.9294 158.059 30.7607C157.76 30.592 157.429 30.5076 157.064 30.5076C156.693 30.5076 156.358 30.592 156.059 30.7607C155.768 30.9294 155.536 31.1663 155.363 31.4712C155.197 31.7697 155.114 32.1136 155.114 32.503C155.114 32.8923 155.197 33.2395 155.363 33.5445C155.536 33.8495 155.768 34.0863 156.059 34.255C156.358 34.4172 156.693 34.4983 157.064 34.4983Z" fill="#AEAEAE"/>
<path d="M57.568 10.8742C56.5582 10.5954 55.0118 10.0379 55.0118 9.17054C55.0118 8.42712 55.7377 7.62175 57.4418 7.62175C58.5463 7.62175 59.6824 8.11736 60.3135 8.86078L63.0275 7.40492C61.923 5.73223 59.9664 4.71002 57.4102 4.71002C54.0967 4.71002 51.6667 6.59955 51.6667 9.23249C51.6667 11.6796 54.0651 12.9186 57.2524 13.9098C59.1774 14.4674 59.9979 15.0869 59.9979 15.9852C59.9979 17.1003 58.7672 17.565 57.2524 17.534C55.927 17.534 54.57 16.6047 53.9704 15.8613L51.0671 17.596C52.2348 19.3616 54.4754 20.7245 57.2209 20.7245C60.7238 20.7245 63.3746 19.0518 63.3746 16.264C63.3746 13.2284 61.0709 11.9584 57.568 10.8742ZM72.8032 4.91642C71.32 4.91642 69.963 5.443 68.9531 6.31033V0.113464H65.4503V20.0946H68.9531V12.1028C68.9531 10.0584 70.6888 8.35473 72.8032 8.35473C74.9175 8.35473 76.6848 10.0584 76.6848 12.1338V20.0946H80.1877L80.1561 12.1338C80.1561 8.1379 76.8741 4.91642 72.8032 4.91642ZM90.3648 4.80295C85.8836 4.80295 82.2545 8.36517 82.2545 12.7637C82.2545 17.1623 85.8836 20.7245 90.3648 20.7245C92.1636 20.7245 93.773 20.074 94.9722 18.9899V20.7245H98.4751V12.7637C98.4751 8.36517 94.846 4.80295 90.3648 4.80295ZM90.3648 17.2862C87.8087 17.2862 85.7574 15.2728 85.7574 12.7637C85.7574 10.2547 87.8087 8.24126 90.3648 8.24126C92.921 8.24126 94.9722 10.2547 94.9722 12.7637C94.9722 15.2728 92.921 17.2862 90.3648 17.2862ZM108.605 4.80295C104.124 4.80295 100.495 8.36517 100.495 12.7637C100.495 17.1623 104.124 20.7245 108.605 20.7245C110.467 20.7245 112.108 20.0121 113.307 18.866V25.5275H116.715V12.7637C116.715 8.36517 113.086 4.80295 108.605 4.80295ZM108.605 17.3481C106.017 17.3481 103.934 15.3037 103.934 12.7637C103.934 10.1927 106.017 8.14834 108.605 8.14834C111.224 8.14834 113.307 10.1927 113.307 12.7637C113.307 15.3037 111.224 17.3481 108.605 17.3481ZM129.734 5.5154L125.537 14.4054L121.276 5.5154H117.395L123.612 18.4633L120.242 25.5275H124.124L133.615 5.5154H129.734ZM141.231 5.48374C137.318 5.48374 134.131 8.58132 134.131 12.4223V20.6619H137.634V12.4223C137.634 10.4708 139.243 8.89108 141.231 8.89108C141.547 8.89108 141.863 8.95303 142.147 9.01498V5.54569C141.831 5.48374 141.547 5.48374 141.231 5.48374ZM144.748 5.5154V13.5071C144.748 17.503 148.061 20.7245 152.132 20.7245C156.203 20.7245 159.485 17.503 159.485 13.5071V5.5154H155.982V13.5071C155.982 15.5825 154.247 17.2862 152.132 17.2862C149.986 17.2862 148.251 15.5825 148.251 13.5071V5.5154H144.748ZM163.379 18.5663C163.379 19.3754 162.577 20.2707 161.643 20.2707C160.71 20.2707 159.907 19.4889 159.907 18.5663C159.907 17.6437 160.652 16.862 161.643 16.862C162.733 16.862 163.379 17.7572 163.379 18.5663ZM178.731 19.9811L172.451 12.0203L178.005 5.5154H173.839L168.348 11.9893V0H164.813V19.9811H168.348V12.0513L174.565 19.9811H178.731ZM194 5.5154H181.093V8.582H187.752L179.61 19.9811H193.621V16.9145H185.859L194 5.5154Z" fill="#AEAEAE"/>
<rect y="1.37036" width="36.0286" height="35.6296" rx="5" fill="#AEAEAE"/>
<path d="M30.4858 19.1851L29.2541 20.4032L16.7827 8.06991L18.0144 6.85181L30.4858 19.1851Z" fill="#2A2A2A"/>
<path d="M19.2461 30.3004L18.0144 31.5185L5.54297 19.1851L6.77472 17.967L19.2461 30.3004Z" fill="#2A2A2A"/>
<path d="M18.0144 31.5185L16.7827 30.3004L29.2541 17.967L30.4858 19.1851L18.0144 31.5185Z" fill="#2A2A2A"/>
<path d="M6.77471 20.4032L5.54297 19.1851L18.0144 6.85181L19.2461 8.06991L6.77471 20.4032Z" fill="#2A2A2A"/>
<path d="M17.1487 8.38067H18.8907V20.0517H17.1487V8.38067Z" fill="#2A2A2A"/>
<path d="M24.7915 18.3291V20.0517H17.1487V18.3291H24.7915Z" fill="#2A2A2A"/>
</svg>
