<svg width="24" height="24" viewBox="0 0 24 24" fill="none" xmlns="http://www.w3.org/2000/svg">
<path d="M0.655015 10.1808C0.231004 9.03553 -0.076039 7.86588 0.0165611 6.62313C0.0750454 5.85799 0.362593 5.20493 0.923068 4.66885C1.53228 4.09377 2.10737 3.48945 2.70684 2.90463C3.48663 2.13461 4.46624 2.13948 5.24603 2.90463C5.72853 3.37736 6.20615 3.85984 6.68377 4.34232C7.14677 4.8053 7.61465 5.26829 8.07765 5.73615C8.89155 6.55978 8.89643 7.51986 8.08252 8.33862C7.49768 8.92344 6.91771 9.51314 6.32312 10.0882C6.16716 10.2393 6.15254 10.366 6.23539 10.5561C6.62529 11.4918 7.19064 12.3252 7.82422 13.1049C9.10112 14.6742 10.5437 16.068 12.2641 17.1451C12.6345 17.3741 13.0391 17.5447 13.4241 17.7543C13.6239 17.8615 13.7555 17.8274 13.9163 17.6617C14.4963 17.0622 15.0909 16.4725 15.6855 15.8828C16.4653 15.1128 17.44 15.108 18.2198 15.8828C19.175 16.8283 20.1254 17.7787 21.0709 18.7339C21.8653 19.5331 21.8604 20.5127 21.0612 21.3168C20.5202 21.8627 19.95 22.3793 19.4431 22.9495C18.7023 23.778 17.7665 24.0509 16.7041 23.9924C15.1542 23.9096 13.7263 23.393 12.347 22.7253C9.28632 21.2389 6.67402 19.1774 4.48574 16.5749C2.86767 14.645 1.53228 12.5493 0.655015 10.1808ZM24 11.9255C24 5.35114 18.6487 0 12.0741 0V2.27107C17.3961 2.27107 21.7289 6.60364 21.7289 11.9255H24ZM17.4693 11.9255H19.7404C19.7404 7.70018 16.2996 4.25947 12.0741 4.25947V6.53054C13.5167 6.53054 14.8716 7.09099 15.8902 8.10956C16.9088 9.12813 17.4693 10.483 17.4693 11.9255Z" fill="#AEAEAE"/>
</svg>
