<svg width="24" height="25" viewBox="0 0 24 25" fill="none" xmlns="http://www.w3.org/2000/svg">
    <path
        d="M0.655015 10.5929C0.231004 9.44764 -0.076039 8.27799 0.0165611 7.03524C0.0750454 6.2701 0.362593 5.61704 0.923068 5.08096C1.53228 4.50588 2.10737 3.90156 2.70684 3.31674C3.48663 2.54672 4.46624 2.55159 5.24603 3.31674C5.72853 3.78947 6.20615 4.27195 6.68377 4.75443C7.14677 5.21741 7.61465 5.6804 8.07765 6.14826C8.89155 6.97189 8.89643 7.93197 8.08252 8.75073C7.49768 9.33555 6.91771 9.92525 6.32312 10.5003C6.16716 10.6514 6.15254 10.7781 6.23539 10.9682C6.62529 11.9039 7.19064 12.7373 7.82422 13.517C9.10112 15.0863 10.5437 16.4802 12.2641 17.5572C12.6345 17.7863 13.0391 17.9568 13.4241 18.1664C13.6239 18.2736 13.7555 18.2395 13.9163 18.0738C14.4963 17.4744 15.0909 16.8847 15.6855 16.295C16.4653 15.5249 17.44 15.5201 18.2198 16.295C19.175 17.2404 20.1254 18.1908 21.0709 19.146C21.8653 19.9452 21.8604 20.9248 21.0612 21.7289C20.5202 22.2748 19.95 22.7914 19.4431 23.3616C18.7023 24.1901 17.7665 24.463 16.7041 24.4045C15.1542 24.3217 13.7263 23.8051 12.347 23.1374C9.28632 21.651 6.67402 19.5895 4.48574 16.987C2.86767 15.0571 1.53228 12.9615 0.655015 10.5929ZM24 12.3376C24 5.76325 18.6487 0.412109 12.0741 0.412109V2.68318C17.3961 2.68318 21.7289 7.01575 21.7289 12.3376H24ZM17.4693 12.3376H19.7404C19.7404 8.11229 16.2996 4.67158 12.0741 4.67158V6.94264C13.5167 6.94264 14.8716 7.5031 15.8902 8.52167C16.9088 9.54024 17.4693 10.8951 17.4693 12.3376Z"
        fill="#00B2FF" />
</svg>