<svg width="21" height="24" viewBox="0 0 21 24" fill="none" xmlns="http://www.w3.org/2000/svg">
<path d="M20.8 6.07675C20.7793 6.07675 18.6828 6.03488 16.8965 4.7093C15.3379 3.55814 14.8 1.05349 14.7172 0.125582V0H10.9241V16.5558C10.9241 18.5442 9.32414 20.1628 7.35862 20.1628C5.3931 20.1628 3.7931 18.5442 3.7931 16.5558C3.7931 14.5674 5.3931 12.9488 7.35862 12.9488H8.55862V9.11163H7.35862C3.30345 9.11163 0 12.4535 0 16.5558C0 20.6581 3.30345 24 7.35862 24C11.4138 24 14.7172 20.6581 14.7172 16.5558V7.84884C17.469 9.85116 20.4483 9.91395 20.7931 9.91395V6.07675H20.8Z" fill="#C4C4C4"/>
</svg>
