<svg width="194" height="39" viewBox="0 0 194 39" fill="none" xmlns="http://www.w3.org/2000/svg">
<rect y="2.37012" width="36.0286" height="35.6296" rx="5" fill="url(#paint0_linear_1665_2)"/>
<path d="M30.4858 20.1849L29.2541 21.403L16.7826 9.06967L18.0144 7.85156L30.4858 20.1849Z" fill="white"/>
<path d="M19.2461 31.3001L18.0144 32.5182L5.54297 20.1849L6.77471 18.9668L19.2461 31.3001Z" fill="white"/>
<path d="M18.0144 32.5182L16.7826 31.3001L29.2541 18.9668L30.4858 20.1849L18.0144 32.5182Z" fill="white"/>
<path d="M6.77471 21.403L5.54297 20.1849L18.0144 7.85156L19.2461 9.06967L6.77471 21.403Z" fill="white"/>
<path d="M17.1487 9.38043H18.8907V21.0515H17.1487V9.38043Z" fill="white"/>
<path d="M24.7915 19.3288V21.0515H17.1487V19.3288H24.7915Z" fill="white"/>
<path d="M54.25 36.125C53.7318 36.125 53.2734 35.9935 52.875 35.7305C52.4792 35.4674 52.1693 35.1042 51.9453 34.6406C51.7214 34.1745 51.6094 33.6367 51.6094 33.0273C51.6094 32.4128 51.7214 31.8724 51.9453 31.4062C52.1693 30.9375 52.4792 30.5729 52.875 30.3125C53.2734 30.0495 53.7318 29.918 54.25 29.918C54.7682 29.918 55.2253 30.0495 55.6211 30.3125C56.0169 30.5755 56.3268 30.9401 56.5508 31.4062C56.7773 31.8724 56.8906 32.4128 56.8906 33.0273C56.8906 33.6367 56.7786 34.1745 56.5547 34.6406C56.3307 35.1042 56.0195 35.4674 55.6211 35.7305C55.2253 35.9935 54.7682 36.125 54.25 36.125ZM54.25 35.4883C54.6667 35.4883 55.0195 35.3763 55.3086 35.1523C55.5977 34.9284 55.8164 34.6302 55.9648 34.2578C56.1159 33.8854 56.1914 33.4753 56.1914 33.0273C56.1914 32.5794 56.1159 32.168 55.9648 31.793C55.8164 31.418 55.5977 31.1172 55.3086 30.8906C55.0195 30.6641 54.6667 30.5508 54.25 30.5508C53.8359 30.5508 53.4831 30.6641 53.1914 30.8906C52.9023 31.1172 52.6823 31.418 52.5313 31.793C52.3828 32.168 52.3086 32.5794 52.3086 33.0273C52.3086 33.4753 52.3828 33.8854 52.5313 34.2578C52.6823 34.6302 52.9023 34.9284 53.1914 35.1523C53.4805 35.3763 53.8333 35.4883 54.25 35.4883ZM59.4423 32.25V36H58.747V30H59.4228V30.9414H59.4853C59.6259 30.6341 59.8446 30.388 60.1415 30.2031C60.441 30.0156 60.8108 29.9219 61.2509 29.9219C61.6545 29.9219 62.0087 30.0065 62.3134 30.1758C62.6207 30.3424 62.859 30.5885 63.0282 30.9141C63.2001 31.2396 63.2861 31.6393 63.2861 32.1133V36H62.5907V32.1562C62.5907 31.6641 62.4527 31.2747 62.1767 30.9883C61.9032 30.7018 61.5361 30.5586 61.0751 30.5586C60.76 30.5586 60.4801 30.6263 60.2353 30.7617C59.9905 30.8971 59.7965 31.0924 59.6532 31.3477C59.5126 31.6003 59.4423 31.901 59.4423 32.25ZM66.1424 28V36H65.4471V28H66.1424ZM69.988 36.1367C69.6261 36.1367 69.2953 36.0664 68.9959 35.9258C68.6964 35.7826 68.4581 35.5768 68.281 35.3086C68.1039 35.0378 68.0154 34.7096 68.0154 34.3242C68.0154 34.0273 68.0714 33.7773 68.1834 33.5742C68.2953 33.3711 68.4542 33.2044 68.6599 33.0742C68.8657 32.944 69.1091 32.8411 69.3904 32.7656C69.6716 32.6901 69.9815 32.6315 70.3201 32.5898C70.656 32.5482 70.9399 32.5117 71.1716 32.4805C71.406 32.4492 71.5844 32.3997 71.7068 32.332C71.8292 32.2643 71.8904 32.1549 71.8904 32.0039V31.8633C71.8904 31.4544 71.768 31.1328 71.5232 30.8984C71.281 30.6615 70.9321 30.543 70.4763 30.543C70.044 30.543 69.6912 30.638 69.4177 30.8281C69.1469 31.0182 68.9568 31.2422 68.8474 31.5L68.1873 31.2617C68.3227 30.9336 68.5102 30.6719 68.7498 30.4766C68.9893 30.2786 69.2576 30.1367 69.5545 30.0508C69.8513 29.9622 70.1521 29.918 70.4568 29.918C70.686 29.918 70.9242 29.9479 71.1716 30.0078C71.4216 30.0677 71.6534 30.1719 71.867 30.3203C72.0805 30.4661 72.2537 30.6706 72.3865 30.9336C72.5193 31.194 72.5857 31.5247 72.5857 31.9258V36H71.8904V35.0508H71.8474C71.7641 35.2279 71.6404 35.3997 71.4763 35.5664C71.3123 35.7331 71.1065 35.8698 70.8591 35.9766C70.6117 36.0833 70.3214 36.1367 69.988 36.1367ZM70.0818 35.5C70.4516 35.5 70.7719 35.418 71.0427 35.2539C71.3136 35.0898 71.5219 34.8724 71.6677 34.6016C71.8162 34.3281 71.8904 34.0273 71.8904 33.6992V32.832C71.8383 32.8815 71.7511 32.9258 71.6287 32.9648C71.5089 33.0039 71.3696 33.0391 71.2107 33.0703C71.0545 33.099 70.8982 33.1237 70.742 33.1445C70.5857 33.1654 70.4451 33.1836 70.3201 33.1992C69.9815 33.2409 69.6925 33.306 69.4529 33.3945C69.2133 33.4831 69.0297 33.6055 68.9021 33.7617C68.7745 33.9154 68.7107 34.1133 68.7107 34.3555C68.7107 34.7201 68.8409 35.0026 69.1013 35.2031C69.3617 35.401 69.6886 35.5 70.0818 35.5ZM75.0348 38.25C74.8968 38.25 74.7679 38.237 74.6481 38.2109C74.5283 38.1849 74.4333 38.1563 74.363 38.125L74.5505 37.5117C74.7874 37.5846 74.9984 37.6107 75.1833 37.5898C75.3682 37.5716 75.5322 37.4883 75.6755 37.3398C75.8187 37.194 75.9463 36.9701 76.0583 36.668L76.277 36.0586L74.07 30H74.8239L76.6052 35.082H76.6598L78.4411 30H79.195L76.6559 36.9492C76.5492 37.2383 76.4177 37.4792 76.2614 37.6719C76.1052 37.8672 75.9242 38.0117 75.7184 38.1055C75.5153 38.2018 75.2874 38.25 75.0348 38.25ZM81.5807 32.25V36H80.8854V30H81.5611V30.9414H81.6236C81.7643 30.6341 81.983 30.388 82.2799 30.2031C82.5794 30.0156 82.9492 29.9219 83.3893 29.9219C83.7929 29.9219 84.1471 30.0065 84.4518 30.1758C84.759 30.3424 84.9973 30.5885 85.1666 30.9141C85.3385 31.2396 85.4244 31.6393 85.4244 32.1133V36H84.7291V32.1562C84.7291 31.6641 84.5911 31.2747 84.315 30.9883C84.0416 30.7018 83.6744 30.5586 83.2135 30.5586C82.8984 30.5586 82.6184 30.6263 82.3736 30.7617C82.1288 30.8971 81.9348 31.0924 81.7916 31.3477C81.651 31.6003 81.5807 31.901 81.5807 32.25ZM93.3725 30V30.6055H90.5092V30H93.3725ZM91.4038 28.5625H92.103V34.4336C92.103 34.6836 92.1459 34.8802 92.2319 35.0234C92.3178 35.1641 92.4298 35.2643 92.5678 35.3242C92.7058 35.3815 92.853 35.4102 93.0092 35.4102C93.1004 35.4102 93.1785 35.4049 93.2436 35.3945C93.3087 35.3815 93.366 35.3685 93.4155 35.3555L93.5639 35.9844C93.4962 36.0104 93.4129 36.0339 93.3139 36.0547C93.2149 36.0781 93.0926 36.0898 92.9467 36.0898C92.6915 36.0898 92.4454 36.0339 92.2084 35.9219C91.9741 35.8099 91.7814 35.6432 91.6303 35.4219C91.4793 35.2005 91.4038 34.9258 91.4038 34.5977V28.5625ZM96.9574 36.1367C96.5954 36.1367 96.2647 36.0664 95.9652 35.9258C95.6657 35.7826 95.4274 35.5768 95.2504 35.3086C95.0733 35.0378 94.9847 34.7096 94.9847 34.3242C94.9847 34.0273 95.0407 33.7773 95.1527 33.5742C95.2647 33.3711 95.4235 33.2044 95.6293 33.0742C95.835 32.944 96.0785 32.8411 96.3597 32.7656C96.641 32.6901 96.9509 32.6315 97.2894 32.5898C97.6254 32.5482 97.9092 32.5117 98.141 32.4805C98.3754 32.4492 98.5537 32.3997 98.6761 32.332C98.7985 32.2643 98.8597 32.1549 98.8597 32.0039V31.8633C98.8597 31.4544 98.7373 31.1328 98.4925 30.8984C98.2504 30.6615 97.9014 30.543 97.4457 30.543C97.0134 30.543 96.6605 30.638 96.3871 30.8281C96.1162 31.0182 95.9261 31.2422 95.8168 31.5L95.1566 31.2617C95.292 30.9336 95.4795 30.6719 95.7191 30.4766C95.9587 30.2786 96.2269 30.1367 96.5238 30.0508C96.8207 29.9622 97.1214 29.918 97.4261 29.918C97.6553 29.918 97.8936 29.9479 98.141 30.0078C98.391 30.0677 98.6227 30.1719 98.8363 30.3203C99.0498 30.4661 99.223 30.6706 99.3558 30.9336C99.4886 31.194 99.555 31.5247 99.555 31.9258V36H98.8597V35.0508H98.8168C98.7334 35.2279 98.6097 35.3997 98.4457 35.5664C98.2816 35.7331 98.0759 35.8698 97.8285 35.9766C97.5811 36.0833 97.2907 36.1367 96.9574 36.1367ZM97.0511 35.5C97.4209 35.5 97.7412 35.418 98.0121 35.2539C98.2829 35.0898 98.4912 34.8724 98.6371 34.6016C98.7855 34.3281 98.8597 34.0273 98.8597 33.6992V32.832C98.8076 32.8815 98.7204 32.9258 98.598 32.9648C98.4782 33.0039 98.3389 33.0391 98.18 33.0703C98.0238 33.099 97.8675 33.1237 97.7113 33.1445C97.555 33.1654 97.4144 33.1836 97.2894 33.1992C96.9509 33.2409 96.6618 33.306 96.4222 33.3945C96.1826 33.4831 95.999 33.6055 95.8714 33.7617C95.7438 33.9154 95.68 34.1133 95.68 34.3555C95.68 34.7201 95.8102 35.0026 96.0707 35.2031C96.3311 35.401 96.6579 35.5 97.0511 35.5ZM102.367 33.7344L102.36 32.8242H102.516L105.328 30H106.207L103.43 32.7812L103.367 32.793L102.367 33.7344ZM101.735 36V28H102.43V36H101.735ZM105.473 36L103.035 32.918L103.535 32.4375L106.364 36H105.473ZM108.539 28V36H107.844V28H108.539ZM110.717 36V30H111.416V36H110.717ZM111.072 28.9687C110.929 28.9687 110.807 28.9206 110.705 28.8242C110.604 28.7253 110.553 28.6068 110.553 28.4687C110.553 28.3307 110.604 28.2135 110.705 28.1172C110.807 28.0182 110.929 27.9687 111.072 27.9687C111.216 27.9687 111.338 28.0182 111.44 28.1172C111.541 28.2135 111.592 28.3307 111.592 28.4687C111.592 28.6068 111.541 28.7253 111.44 28.8242C111.338 28.9206 111.216 28.9687 111.072 28.9687ZM116.054 30V30.6055H113.105V30H116.054ZM114.026 36V29.1211C114.026 28.7982 114.101 28.526 114.249 28.3047C114.4 28.0833 114.597 27.9154 114.839 27.8008C115.081 27.6862 115.338 27.6289 115.608 27.6289C115.791 27.6289 115.942 27.6445 116.062 27.6758C116.184 27.7044 116.28 27.7331 116.351 27.7617L116.147 28.3711C116.095 28.3555 116.032 28.3372 115.956 28.3164C115.881 28.2956 115.786 28.2852 115.671 28.2852C115.369 28.2852 115.136 28.3698 114.972 28.5391C114.808 28.7083 114.726 28.9505 114.726 29.2656L114.722 36H114.026ZM118.467 32.25V36H117.771V30H118.447V30.9414H118.51C118.65 30.6341 118.869 30.388 119.166 30.2031C119.465 30.0156 119.835 29.9219 120.275 29.9219C120.679 29.9219 121.033 30.0065 121.338 30.1758C121.645 30.3424 121.883 30.5885 122.053 30.9141C122.225 31.2396 122.311 31.6393 122.311 32.1133V36H121.615V32.1562C121.615 31.6641 121.477 31.2747 121.201 30.9883C120.928 30.7018 120.561 30.5586 120.1 30.5586C119.784 30.5586 119.505 30.6263 119.26 30.7617C119.015 30.8971 118.821 31.0924 118.678 31.3477C118.537 31.6003 118.467 31.901 118.467 32.25ZM126.804 36.125C126.285 36.125 125.827 35.9935 125.429 35.7305C125.033 35.4674 124.723 35.1042 124.499 34.6406C124.275 34.1745 124.163 33.6367 124.163 33.0273C124.163 32.4128 124.275 31.8724 124.499 31.4062C124.723 30.9375 125.033 30.5729 125.429 30.3125C125.827 30.0495 126.285 29.918 126.804 29.918C127.322 29.918 127.779 30.0495 128.175 30.3125C128.571 30.5755 128.88 30.9401 129.104 31.4062C129.331 31.8724 129.444 32.4128 129.444 33.0273C129.444 33.6367 129.332 34.1745 129.108 34.6406C128.884 35.1042 128.573 35.4674 128.175 35.7305C127.779 35.9935 127.322 36.125 126.804 36.125ZM126.804 35.4883C127.22 35.4883 127.573 35.3763 127.862 35.1523C128.151 34.9284 128.37 34.6302 128.518 34.2578C128.669 33.8854 128.745 33.4753 128.745 33.0273C128.745 32.5794 128.669 32.168 128.518 31.793C128.37 31.418 128.151 31.1172 127.862 30.8906C127.573 30.6641 127.22 30.5508 126.804 30.5508C126.39 30.5508 126.037 30.6641 125.745 30.8906C125.456 31.1172 125.236 31.418 125.085 31.793C124.936 32.168 124.862 32.5794 124.862 33.0273C124.862 33.4753 124.936 33.8854 125.085 34.2578C125.236 34.6302 125.456 34.9284 125.745 35.1523C126.034 35.3763 126.387 35.4883 126.804 35.4883ZM131.301 36V30H131.976V30.9219H132.039C132.159 30.612 132.358 30.3685 132.637 30.1914C132.918 30.0117 133.255 29.9219 133.648 29.9219C134.062 29.9219 134.402 30.0195 134.668 30.2148C134.936 30.4076 135.137 30.6732 135.269 31.0117H135.32C135.456 30.6784 135.676 30.4141 135.98 30.2187C136.288 30.0208 136.66 29.9219 137.097 29.9219C137.655 29.9219 138.095 30.0977 138.418 30.4492C138.741 30.7982 138.902 31.3086 138.902 31.9805V36H138.207V31.9805C138.207 31.5065 138.086 31.151 137.844 30.9141C137.601 30.6771 137.282 30.5586 136.887 30.5586C136.428 30.5586 136.075 30.6992 135.828 30.9805C135.581 31.2617 135.457 31.6185 135.457 32.0508V36H134.746V31.918C134.746 31.5117 134.633 31.1836 134.406 30.9336C134.179 30.6836 133.86 30.5586 133.449 30.5586C133.173 30.5586 132.924 30.6263 132.703 30.7617C132.484 30.8971 132.311 31.0859 132.183 31.3281C132.058 31.5677 131.996 31.8437 131.996 32.1562V36H131.301ZM142.749 36.1367C142.387 36.1367 142.056 36.0664 141.757 35.9258C141.457 35.7826 141.219 35.5768 141.042 35.3086C140.865 35.0378 140.776 34.7096 140.776 34.3242C140.776 34.0273 140.832 33.7773 140.944 33.5742C141.056 33.3711 141.215 33.2044 141.421 33.0742C141.626 32.944 141.87 32.8411 142.151 32.7656C142.432 32.6901 142.742 32.6315 143.081 32.5898C143.417 32.5482 143.701 32.5117 143.932 32.4805C144.167 32.4492 144.345 32.3997 144.467 32.332C144.59 32.2643 144.651 32.1549 144.651 32.0039V31.8633C144.651 31.4544 144.529 31.1328 144.284 30.8984C144.042 30.6615 143.693 30.543 143.237 30.543C142.805 30.543 142.452 30.638 142.178 30.8281C141.908 31.0182 141.717 31.2422 141.608 31.5L140.948 31.2617C141.083 30.9336 141.271 30.6719 141.51 30.4766C141.75 30.2786 142.018 30.1367 142.315 30.0508C142.612 29.9622 142.913 29.918 143.217 29.918C143.447 29.918 143.685 29.9479 143.932 30.0078C144.182 30.0677 144.414 30.1719 144.628 30.3203C144.841 30.4661 145.014 30.6706 145.147 30.9336C145.28 31.194 145.346 31.5247 145.346 31.9258V36H144.651V35.0508H144.608C144.525 35.2279 144.401 35.3997 144.237 35.5664C144.073 35.7331 143.867 35.8698 143.62 35.9766C143.372 36.0833 143.082 36.1367 142.749 36.1367ZM142.842 35.5C143.212 35.5 143.533 35.418 143.803 35.2539C144.074 35.0898 144.283 34.8724 144.428 34.6016C144.577 34.3281 144.651 34.0273 144.651 33.6992V32.832C144.599 32.8815 144.512 32.9258 144.389 32.9648C144.27 33.0039 144.13 33.0391 143.971 33.0703C143.815 33.099 143.659 33.1237 143.503 33.1445C143.346 33.1654 143.206 33.1836 143.081 33.1992C142.742 33.2409 142.453 33.306 142.214 33.3945C141.974 33.4831 141.79 33.6055 141.663 33.7617C141.535 33.9154 141.471 34.1133 141.471 34.3555C141.471 34.7201 141.602 35.0026 141.862 35.2031C142.122 35.401 142.449 35.5 142.842 35.5Z" fill="black"/>
<path d="M58.3416 21.2876C56.8267 21.2876 55.5227 20.9808 54.4297 20.3672C53.343 19.7472 52.5057 18.8714 51.9176 17.7401C51.3295 16.6023 51.0355 15.2567 51.0355 13.7035C51.0355 12.1886 51.3295 10.859 51.9176 9.71484C52.5057 8.57067 53.3335 7.67898 54.4009 7.03977C55.4748 6.40057 56.734 6.08097 58.1786 6.08097C59.1502 6.08097 60.0547 6.23757 60.892 6.55078C61.7358 6.8576 62.4709 7.32102 63.0973 7.94105C63.7301 8.56108 64.2223 9.34091 64.5739 10.2805C64.9254 11.2138 65.1012 12.3068 65.1012 13.5597V14.6815H52.6655V12.1502H61.2564C61.2564 11.5621 61.1286 11.0412 60.8729 10.5874C60.6172 10.1335 60.2624 9.77876 59.8086 9.52308C59.3612 9.26101 58.8402 9.12997 58.2457 9.12997C57.6257 9.12997 57.076 9.27379 56.5966 9.56143C56.1236 9.84268 55.7528 10.223 55.4844 10.7024C55.2159 11.1754 55.0785 11.7028 55.0721 12.2844V14.6911C55.0721 15.4197 55.2063 16.0494 55.4748 16.5799C55.7496 17.1104 56.1364 17.5195 56.6349 17.8072C57.1335 18.0948 57.7248 18.2386 58.4087 18.2386C58.8626 18.2386 59.2781 18.1747 59.6552 18.0469C60.0323 17.919 60.3551 17.7273 60.6236 17.4716C60.892 17.2159 61.0966 16.9027 61.2372 16.532L65.0149 16.7812C64.8232 17.6889 64.43 18.4815 63.8356 19.1591C63.2475 19.8303 62.4869 20.3544 61.5536 20.7315C60.6268 21.1023 59.5561 21.2876 58.3416 21.2876ZM76.9425 11.3161V14.5568H67.9872V11.3161H76.9425ZM88.2564 6.27273V9.34091H79.3874V6.27273H88.2564ZM81.4009 2.74432H85.4854V16.4744C85.4854 16.8516 85.543 17.1456 85.658 17.3565C85.7731 17.5611 85.9329 17.7049 86.1374 17.788C86.3484 17.8711 86.5913 17.9126 86.8661 17.9126C87.0579 17.9126 87.2496 17.8967 87.4414 17.8647C87.6332 17.8263 87.7802 17.7976 87.8825 17.7784L88.5249 20.8178C88.3203 20.8817 88.0327 20.9553 87.6619 21.0384C87.2912 21.1278 86.8406 21.1822 86.31 21.2013C85.3256 21.2397 84.4627 21.1087 83.7212 20.8082C82.9862 20.5078 82.4141 20.0412 82.005 19.4084C81.5959 18.7756 81.3945 17.9766 81.4009 17.0114V2.74432ZM95.1167 21.2781C94.177 21.2781 93.3397 21.1151 92.6046 20.7891C91.8695 20.4567 91.2878 19.9677 90.8596 19.3221C90.4377 18.6701 90.2267 17.8583 90.2267 16.8867C90.2267 16.0685 90.377 15.3814 90.6774 14.8253C90.9778 14.2692 91.3869 13.8217 91.9047 13.483C92.4224 13.1442 93.0105 12.8885 93.6689 12.7159C94.3336 12.5433 95.0304 12.4219 95.7591 12.3516C96.6156 12.2621 97.3059 12.179 97.8301 12.1023C98.3542 12.0192 98.7346 11.8977 98.9711 11.7379C99.2076 11.5781 99.3258 11.3416 99.3258 11.0284V10.9709C99.3258 10.3636 99.1341 9.89382 98.7505 9.56143C98.3734 9.22905 97.8365 9.06285 97.1397 9.06285C96.4047 9.06285 95.8198 9.22585 95.3851 9.55185C94.9505 9.87145 94.6628 10.2741 94.5222 10.7599L90.7445 10.4531C90.9363 9.55824 91.3134 8.7848 91.8759 8.13281C92.4384 7.47443 93.1639 6.96946 94.0524 6.6179C94.9473 6.25994 95.9828 6.08097 97.1589 6.08097C97.9771 6.08097 98.7601 6.17685 99.508 6.36861C100.262 6.56037 100.93 6.8576 101.512 7.2603C102.1 7.663 102.563 8.18075 102.902 8.81357C103.241 9.43999 103.41 10.1911 103.41 11.0668V21H99.5368V18.9577H99.4217C99.1852 19.418 98.8688 19.8239 98.4725 20.1754C98.0762 20.5206 97.6 20.7923 97.0439 20.9904C96.4877 21.1822 95.8453 21.2781 95.1167 21.2781ZM96.2864 18.4592C96.8873 18.4592 97.4178 18.3409 97.878 18.1044C98.3382 17.8615 98.6994 17.5355 98.9615 17.1264C99.2235 16.7173 99.3546 16.2539 99.3546 15.7362V14.1733C99.2267 14.2564 99.051 14.3331 98.8272 14.4034C98.6099 14.4673 98.3638 14.5281 98.089 14.5856C97.8141 14.6367 97.5392 14.6847 97.2644 14.7294C96.9895 14.7678 96.7402 14.8029 96.5165 14.8349C96.0371 14.9052 95.6184 15.017 95.2605 15.1705C94.9025 15.3239 94.6245 15.5316 94.4263 15.7937C94.2282 16.0494 94.1291 16.369 94.1291 16.7525C94.1291 17.3086 94.3304 17.7337 94.7331 18.0277C95.1422 18.3153 95.66 18.4592 96.2864 18.4592ZM110.28 16.7621L110.29 11.8626H110.884L115.602 6.27273H120.29L113.952 13.6747H112.984L110.28 16.7621ZM106.579 21V1.36364H110.664V21H106.579ZM115.784 21L111.45 14.5856L114.173 11.6996L120.568 21H115.784ZM126.379 1.36364V21H122.294V1.36364H126.379ZM129.65 21V6.27273H133.735V21H129.65ZM131.702 4.37429C131.095 4.37429 130.574 4.17294 130.139 3.77024C129.711 3.36115 129.497 2.87216 129.497 2.30327C129.497 1.74077 129.711 1.25817 130.139 0.855469C130.574 0.446377 131.095 0.241831 131.702 0.241831C132.31 0.241831 132.827 0.446377 133.256 0.855469C133.69 1.25817 133.908 1.74077 133.908 2.30327C133.908 2.87216 133.69 3.36115 133.256 3.77024C132.827 4.17294 132.31 4.37429 131.702 4.37429ZM144.927 6.27273V9.34091H135.837V6.27273H144.927ZM137.918 21V5.20845C137.918 4.14098 138.126 3.25568 138.541 2.55256C138.963 1.84943 139.538 1.32209 140.267 0.970524C140.996 0.618962 141.823 0.443181 142.75 0.443181C143.377 0.443181 143.949 0.491121 144.466 0.587003C144.991 0.682883 145.381 0.769176 145.636 0.84588L144.907 3.91406C144.748 3.86293 144.55 3.81498 144.313 3.77024C144.083 3.7255 143.846 3.70312 143.604 3.70312C143.003 3.70312 142.584 3.84375 142.347 4.125C142.111 4.39986 141.993 4.78658 141.993 5.28516V21H137.918ZM148.28 21.2493C147.647 21.2493 147.104 21.0256 146.65 20.5781C146.203 20.1243 145.979 19.581 145.979 18.9482C145.979 18.3217 146.203 17.7848 146.65 17.3374C147.104 16.8899 147.647 16.6662 148.28 16.6662C148.894 16.6662 149.431 16.8899 149.891 17.3374C150.351 17.7848 150.581 18.3217 150.581 18.9482C150.581 19.37 150.473 19.7567 150.255 20.1083C150.044 20.4535 149.766 20.7315 149.421 20.9425C149.076 21.147 148.696 21.2493 148.28 21.2493ZM163.379 14.7294V6.27273H167.463V21H163.542V18.3249H163.388C163.056 19.1879 162.503 19.8814 161.73 20.4055C160.963 20.9297 160.026 21.1918 158.92 21.1918C157.936 21.1918 157.07 20.968 156.322 20.5206C155.574 20.0732 154.989 19.4371 154.567 18.6126C154.152 17.788 153.941 16.8004 153.935 15.6499V6.27273H158.019V14.9212C158.026 15.7905 158.259 16.4776 158.719 16.9826C159.179 17.4876 159.796 17.7401 160.57 17.7401C161.062 17.7401 161.522 17.6282 161.95 17.4045C162.379 17.1744 162.724 16.8356 162.986 16.3881C163.254 15.9407 163.385 15.3878 163.379 14.7294ZM170.654 21V18.5646L177.864 9.63814V9.53267H170.903V6.27273H182.783V8.92862L176.014 17.6346V17.7401H183.032V21H170.654Z" fill="#00B2FF"/>
<defs>
<linearGradient id="paint0_linear_1665_2" x1="36.6327" y1="2.37012" x2="-4.56087" y2="8.80562" gradientUnits="userSpaceOnUse">
<stop stop-color="#00ADFF"/>
<stop offset="1" stop-color="#00DDFF"/>
</linearGradient>
</defs>
</svg>
