<svg width="24" height="24" viewBox="0 0 24 24" fill="none" xmlns="http://www.w3.org/2000/svg">
<g clip-path="url(#clip0_558_903)">
<path fill-rule="evenodd" clip-rule="evenodd" d="M12 0C16.1195 0 19.459 3.24717 19.459 7.25283C19.459 11.7138 15.6914 16.6274 12.3325 19.3412C12.1402 19.4965 11.8677 19.4966 11.6754 19.3414C8.30604 16.6216 4.5409 11.7379 4.5409 7.25283C4.54095 3.24717 7.88046 0 12 0V0ZM18.1688 17.731C19.5727 18.0282 20.714 18.4177 21.4807 18.8652C22.0388 19.191 22.3545 19.503 22.3545 19.7723C22.3545 20.3287 21.3245 20.9229 19.6593 21.4335L19.6564 21.4345L19.6561 21.4335C17.709 22.0306 15.003 22.4 12 22.4C8.99691 22.4 6.291 22.0306 4.34392 21.4335C4.33192 21.4299 4.31996 21.4265 4.30791 21.4234C2.66204 20.9151 1.64548 20.3251 1.64548 19.7723C1.64548 19.5031 1.96125 19.1911 2.51925 18.8654C3.2859 18.4178 4.42728 18.0285 5.83114 17.7312C6.27489 17.638 6.55691 17.2127 6.46107 16.7812C6.36524 16.3497 5.9278 16.0755 5.48404 16.1687C3.91299 16.5013 2.6014 16.9571 1.6772 17.4966C0.606119 18.1219 0 18.8927 0 19.7723C0 21.1005 1.45395 22.2146 3.80785 22.9448C3.8214 22.9497 3.83514 22.9543 3.84902 22.9586C5.94722 23.602 8.83001 24 12 24C15.1699 24 18.0527 23.602 20.151 22.9585L20.1507 22.9576C22.529 22.2278 24 21.1083 24 19.7723C24 18.8926 23.3939 18.1217 22.3228 17.4965C21.3985 16.9569 20.087 16.5011 18.5159 16.1685C18.0722 16.0754 17.6347 16.3496 17.5389 16.7811C17.443 17.2125 17.7251 17.6378 18.1688 17.731ZM12 3.55317C9.89859 3.55317 8.19516 5.20955 8.19516 7.25283C8.19516 9.29606 9.89864 10.9525 12 10.9525C14.1013 10.9525 15.8048 9.29611 15.8048 7.25283C15.8048 5.20955 14.1014 3.55317 12 3.55317Z" fill="#AEAEAE"/>
</g>
<defs>
<clipPath id="clip0_558_903">
<rect width="24" height="24" fill="white"/>
</clipPath>
</defs>
</svg>
